<?xml version="1.0" encoding="utf-8"?>
<!-- Generator: Adobe Illustrator 22.0.1, SVG Export Plug-In . SVG Version: 6.00 Build 0)  -->
<svg version="1.1" id="Logo" xmlns="http://www.w3.org/2000/svg" xmlns:xlink="http://www.w3.org/1999/xlink" x="0px" y="0px"
	 viewBox="0 0 858 349.7" style="enable-background:new 0 0 858 349.7;" xml:space="preserve">
<style type="text/css">
	.st0{fill:#FFFFFF;}
</style>
<g>
	<g>
		<path class="st0" d="M3,317.5h5.6c5.5,0,9.7,0,13.3,2.8c3.4,2.6,5.1,6.7,5.1,12s-1.8,9.3-5.1,11.9c-3.4,2.6-7.3,2.8-12,2.8H3
			V317.5z M8.7,343.6c5,0,8.5,0,11-2.1c2.4-2,3.7-5.2,3.7-9.3s-1.3-7.3-3.7-9.3c-2.4-2.1-5.9-2.1-11-2.1H6.5v22.9H8.7z"/>
		<path class="st0" d="M53.3,317.5h6.9c2.8,0,4.9,0.1,6.7,1.5c1.7,1.3,2.8,3.7,2.8,6.5c0,4.8-2.8,7.4-7.9,7.4h-0.6l11.2,14H68
			l-10.7-14h-0.4v14h-3.5V317.5z M56.8,330.3h2.6c4.6,0,6.9-0.7,6.9-4.7c0-4.3-2.2-5.1-6.9-5.1h-2.6V330.3z"/>
		<path class="st0" d="M98.4,342.5c1.4,0,2.4,1.1,2.4,2.4c0,1.3-1.1,2.3-2.4,2.3c-1.4,0-2.4-1-2.4-2.3
			C96,343.6,97.1,342.5,98.4,342.5z"/>
		<path class="st0" d="M133.7,320.8h-8.3v-3.3h20.1v3.3h-8.3v26.1h-3.5V320.8z"/>
		<path class="st0" d="M189.6,346.9h-3.8l-3.8-9h-11.5l-3.8,9h-3.8l13.3-30.6L189.6,346.9z M171.6,334.9h9.4l-4.7-10.8L171.6,334.9z
			"/>
		<path class="st0" d="M213.2,317.5h6.9c2.8,0,4.9,0.1,6.7,1.5c1.7,1.3,2.8,3.7,2.8,6.5c0,4.8-2.8,7.4-7.9,7.4h-0.6l11.2,14h-4.4
			l-10.7-14h-0.4v14h-3.5V317.5z M216.7,330.3h2.6c4.6,0,6.9-0.7,6.9-4.7c0-4.3-2.2-5.1-6.9-5.1h-2.6V330.3z"/>
		<path class="st0" d="M255.8,317.5h15.5v3.2h-12v8.4h12v3.2h-12v11.3h12v3.2h-15.5V317.5z"/>
		<path class="st0" d="M323.9,349.7l-3.9-4.2c-2.3,1.4-5.1,2-8.3,2c-3.3,0-6.4-1-8.9-2.9c-4.1-3-6.3-7.4-6.3-12.5
			c0-4.1,1.6-8,4.6-10.9c3-2.9,6.9-4.5,11.1-4.5s7.9,1.4,10.9,4.1c3.2,2.9,4.9,6.9,4.9,11.3c0,4.7-1.8,8.7-5.3,11.4l5.6,6H323.9z
			 M320.2,341.1c2.5-2,3.9-5.1,3.9-8.7c0-2.4-0.6-4.6-1.6-6.4c-2.2-3.7-6-5.8-10.3-5.8c-3.2,0-6.3,1.2-8.5,3.5s-3.5,5.3-3.5,8.5
			c0,4.2,1.7,7.5,5,9.9c1.9,1.4,4.2,2.1,6.7,2.1c2.2,0,4-0.4,5.7-1.3l-6-6.5h4.3L320.2,341.1z"/>
		<path class="st0" d="M409.4,346.9h-3.8l-3.8-9h-11.5l-3.8,9h-3.8l13.3-30.6L409.4,346.9z M391.4,334.9h9.4l-4.7-10.8L391.4,334.9z
			"/>
		<path class="st0" d="M433,317.5h3.5v26.1h11.1v3.3H433V317.5z"/>
		<path class="st0" d="M480.3,336.2v3.2h-9.4v-3.2H480.3z"/>
		<path class="st0" d="M524.5,338.6c0,5.4-3.7,9-9.4,9c-4.6,0-7.9-2.5-9-6.8l3.2-1.6c0.9,3.6,2.9,5.4,5.8,5.4c3.5,0,5.9-2.3,5.9-5.5
			c0-2.6-1.5-4.6-4.6-5.9l-3.6-1.5c-3.9-1.6-5.8-4.2-5.8-7.8c0-4.1,3.4-7.2,8.3-7.2c3.5,0,6.2,1.5,7.6,4.4l-2.9,1.9
			c-1.3-2.2-2.9-3.4-5-3.4c-2.6,0-4.5,1.8-4.5,4.3c0,2.1,1.3,3.6,3.9,4.7l4.2,1.9C522.5,332.2,524.5,334.9,524.5,338.6z"/>
		<path class="st0" d="M553,317.5v18.3c0,5.9,2.4,8.6,7.9,8.6c5.5,0,7.9-2.8,7.9-8.6v-18.3h3.5v18.3c0,7.9-3.7,11.9-11.4,11.9
			c-7.6,0-11.4-3.9-11.4-11.9v-18.3H553z"/>
		<path class="st0" d="M599.8,317.5l7.4,21.6l7.8-22.8l7.9,22.8l7.5-21.6h3.8L622.7,348l-7.7-22.7l-7.6,22.7L596,317.5H599.8z"/>
		<path class="st0" d="M679.8,346.9H676l-3.8-9h-11.5l-3.8,9h-3.8l13.3-30.6L679.8,346.9z M661.8,334.9h9.4l-4.7-10.8L661.8,334.9z"
			/>
		<path class="st0" d="M703.5,317.5h3.5v29.4h-3.5V317.5z"/>
		<path class="st0" d="M734.6,317.5h5.6c5.5,0,9.7,0,13.3,2.8c3.4,2.6,5.1,6.7,5.1,12s-1.8,9.3-5.1,11.9c-3.4,2.6-7.3,2.8-12,2.8
			h-6.9V317.5z M740.4,343.6c5,0,8.5,0,11-2.1c2.4-2,3.7-5.2,3.7-9.3s-1.3-7.3-3.7-9.3c-2.4-2.1-5.9-2.1-11-2.1h-2.3v22.9H740.4z"/>
		<path class="st0" d="M806.9,346.9h-3.8l-3.8-9h-11.5l-3.8,9h-3.8l13.3-30.6L806.9,346.9z M788.8,334.9h9.4l-4.7-10.8L788.8,334.9z
			"/>
		<path class="st0" d="M830.5,316.3l21.3,23.5v-22.3h3.5V348L834,324.8v22.1h-3.5V316.3z"/>
	</g>
	<g>
		<path class="st0" d="M664.9,156.8c0.6,18.6-3,33.9-9.7,50.7c-4.2,10.5-11.1,18.1-18.8,26.4c-7.1,7.6-15.6,13.2-26.1,14.6
			c-19.9,2.6-36.4-6.9-45.1-25.3c-8.8-18.6-9.3-34.6-5.2-54.4c5.6-27.5,15.8-53.5,26.4-79.3c4.4-10.6,9.4-21.1,10.4-32.7
			c0.3-3.9,0.2-8-0.4-11.8c-0.7-4.3-3.9-6.3-8.3-6c-4.1,0.3-7.6,2-10.6,5c-1.6,1.6-3,3.3-4.7,4.6c-1.1,0.8-5.8,4.1-5.8,4.1
			s-0.2-5.6-0.1-7c0.6-8.6,3.3-16.6,9.1-23.2c3.9-4.5,8.8-7.4,14.7-8.2c6.4-0.9,11,1.2,13.6,7.1c2,4.6,3.4,9.7,3.9,14.7
			c1.1,11.6-0.4,23-3.6,34.1c-6.7,23-16.4,44.8-25.9,66.6c-6.2,14.1-10.7,28.6-11.2,44.1c-0.3,10.1,1.3,19.8,7.2,28.4
			c10.2,15,29.5,20.3,45.8,12.4c14.4-7,23.5-18.8,29.1-33.5c2.6-6.9,4.7-13.8,4.9-21.3c0.1-2.8-0.9-4-3.6-3.4c-2,0.4-4.3,0.5-6,1.6
			c-9.5,5.8-20.8,2.3-23.2-12.5c-1.1-6.9-0.4-13.8,2.3-20.3c4.6-11.2,15.2-14.5,25.4-8c8,5.1,12,12.9,13.9,21.9
			C664.1,149.7,664.4,153.5,664.9,156.8z"/>
		<path class="st0" d="M712.5,92.9c-0.8-1.1-1.4-1.6-1.5-2.2c-1.4-12.2-1.2-24,5.8-34.8c3.7-5.8,9-8.5,15.8-8.5c3.4,0,6.3,0.9,9,2.9
			c7.4,5.3,10.5,13.3,13.4,21.4c3.9,11.1,5.4,22.8,7.2,34.3c0.2,1.1,0.4,2.2,0.7,3.8c1.5-0.6,2.7-1.2,3.9-1.6
			c9.7-3.3,16.3,0.7,18.3,11.4c1.9,10.3,0.4,14.2-2.6,24.2c-6.5,21.3-19.6,37.9-36.3,52c-2.5,2.1-3.3,4.3-3.2,7.3
			c0.4,6.3,0.8,12.5,1.1,18.8c0.1,3-0.2,6.1-1.1,9.2c-5.7-8.8-5.7-18.8-7-28.9c-2.2,0.5-4.6,0.9-7,1.6c-5.2,1.6-10.1,0.6-14.4-2.3
			c-3.7-2.6-7.4-5.6-10.2-9.1c-8.4-10.3-14.2-22-18.8-34.5c-5.2-14.1-9.9-22-12.9-36.7c-0.8-4.3,0.3-17.3,2.6-22
			c0.7,1.6,1.3,2.9,1.7,4.2c5,17.2,10.6,34.1,17.7,50.6c3.6,8.4,7.3,17,13.6,23.9c2.2,2.4,5,4.5,7.8,6.3c3.9,2.5,13.6,1.2,17.2-2
			c0.6-0.5,0.8-1.6,0.9-2.5c0.4-7.2,0.2-14.5,1.1-21.6c1-7.5,2.6-15,4.5-22.4c2.2-8.6,7.4-15.4,14.3-20.8c0.9-0.7,1.7-2.2,1.6-3.2
			c-1.2-12.1-5.6-28.3-13.6-37.4c-1.1-1.3-2.3-2.4-3.7-3.4c-6.9-5.4-14.7-4.3-19.5,3c-2.2,3.5-3.7,12.8-5.5,16.6
			C713.3,90.9,713,91.7,712.5,92.9z M743,175c13.3-11.5,24.5-24.4,31.4-41.2c-1.1-0.4-1.8-0.8-2.5-0.8c-9.6,0.1-17.7,3.7-22.6,11.8
			C743.9,154,742.9,164.4,743,175z"/>
		<path class="st0" d="M695.9,195.9c0,1.4-0.4,2.9-0.8,4.4c-1.6,5.3-2.9,10.7-4.9,15.8c-5.3,13.6-15,22.9-28.3,28.7
			c-9.1,4-18.3,7.7-28.3,8.9c-0.8,0.1-1.6,0.1-2.4,0.2c-0.2-0.3-0.4-0.6-0.6-1c2.1-1.9,4.1-3.9,6.4-5.7c14-11.2,27.7-22.8,37.5-38
			c2.8-4.4,5.5-8.9,7.7-13.6c2-4.4,3.4-9.2,5.2-14.1C689.9,186.7,692.8,191.5,695.9,195.9z"/>
		<path class="st0" d="M647.5,88.7c0.7,13.6-2.5,18.5-15.4,22.3c-6.6,1.9-13.4,2.9-20.2,4.2c-2.3,0.4-3.3-0.7-3.1-3.3
			c0.7-6.9,1.3-13.9,1.5-20.9c0.1-2.4,1.5-2.8,3.1-3.2c6.6-1.7,13.2-3.3,19.7-5.1c2.6-0.7,5.1-1.8,7.7-2.6c4.2-1.4,5.5-0.8,6.3,3.6
			C647.5,85.3,647.4,87,647.5,88.7z"/>
		<path class="st0" d="M660.4,271.8c0.6-3.5,1-6.4,1.7-9.4c0.2-0.7,1.2-1.4,1.9-1.9c10-5.9,20-11.7,30.1-17.5
			c9.5-5.5,19-11,28.4-16.5c0.8-0.5,1.8-0.8,3-1.3c-0.4,5.5-2.3,9.1-6.8,11.8c-19,11.2-37.8,22.6-56.7,34
			C661.6,271.2,661.3,271.3,660.4,271.8z"/>
		<path class="st0" d="M685.6,50.4c0.6-3.6,0.9-6.4,1.6-9.1c0.2-0.9,1.3-1.9,2.2-2.4c9.5-5.6,19.1-11.2,28.6-16.8
			c9.9-5.8,19.9-11.5,29.8-17.2c0.8-0.4,1.6-0.7,2.8-1.1c-0.4,5.4-2.2,9.1-6.8,11.7c-14.5,8.2-28.9,16.7-43.3,25.3
			C695.7,43.6,691.1,46.8,685.6,50.4z"/>
		<path class="st0" d="M623.3,55.6c2.1-6.5,4.8-11.6,9.2-15.6c0.8-0.7,2-1.4,3-1.5c5.2-0.3,10.4-0.7,15.6-0.5c4.1,0.1,6,3,5.2,7.1
			c-2.1,10.2-8.8,16-18.4,18.9c-2.7,0.8-5.5,1.1-8.5,1.1c6.4-4.2,12.7-8.5,19.4-13C642.4,48.6,629.5,50.4,623.3,55.6z"/>
		<path class="st0" d="M717,135.9c-1-0.4-1.6-0.5-2-0.8c-3.2-2.6-6.1-2.3-7.7,1.5c-1.8,4.1-3,8.4-4.3,12.6c-0.1-0.1-0.1-0.3-0.2-0.4
			c-2.6-6-5.1-12.3-7.5-19.1c0.9-3.8,2.9-7.4,5.2-10.9c3.4-5.1,8.6-5.1,12,0.1C715.7,123.9,716.6,129.6,717,135.9z"/>
		<path class="st0" d="M400.9,206.3c-4.4,9-8.7,17.4-12.6,26c-1.9,4.2-3.3,8.7-3.9,13.3c0,0.2,0,0.3-0.1,0.5
			c-0.3,2.4,0.4,4.8,1.8,6.8l0,0c0.6,0.8,1.7,1.2,2.7,0.9c0,0,0,0,0,0c3-0.7,5.7-2.2,7.8-4.5c0.5-0.5,0.9-1,1.3-1.4
			c0.1,6.1-6.5,15.7-12.1,17.5c-4,1.3-9-1.6-9.2-6.3c-0.1-2,0.2-4.3,0.7-6.8c0.9-4.2,2.3-8.2,4.2-12.1c4.9-10.3,9.5-18.9,15-29.6
			C397.5,209.2,399.2,208.1,400.9,206.3z"/>
		<path class="st0" d="M122.1,247.7c1.1-3.4,2-6.4,3.1-9.3c0.3-0.7,1.4-1.3,2.2-1.6c11-4.5,22.1-8.9,33.1-13.4
			c10.4-4.2,20.9-8.5,31.3-12.7c0.9-0.4,1.9-0.5,3.2-0.9c-1.2,5.5-3.6,8.9-8.7,11c-20.9,8.6-41.7,17.5-62.6,26.3
			C123.5,247.2,123.2,247.3,122.1,247.7z"/>
		<path class="st0" d="M297.7,120c1.2-3.6,1.9-6.4,3-9c0.4-0.9,1.6-1.7,2.6-2.1c10.5-4.4,21-8.6,31.6-12.9
			c10.9-4.4,21.9-8.8,32.8-13.2c0.8-0.3,1.8-0.4,3-0.7c-1.2,5.4-3.5,8.9-8.6,10.9c-16,6.2-31.8,12.8-47.7,19.4
			C309,114.5,303.9,117.1,297.7,120z"/>
		<path class="st0" d="M234.6,78.5c3-6.3,6.6-11,11.6-14.5c0.9-0.6,2.2-1.1,3.3-1c5.3,0.4,10.7,0.8,15.9,1.7c4.2,0.8,5.7,4,4.2,8
			c-3.6,10.1-11.3,15-21.5,16.5c-2.8,0.4-5.7,0.3-8.8-0.2c7.1-3.4,14.2-6.8,21.6-10.4C255,74.2,241.7,74.1,234.6,78.5z"/>
		<path class="st0" d="M93.6,65.9c-0.7,1.2-1.6,2.7-2.8,4.5c-1.2,1.7-2.4,3.4-3.6,5c-1.2,1.6-2.4,2.9-3.4,4c-1,1.1-1.7,1.6-2.1,1.5
			c-0.6-0.1-1.6-0.7-3.1-1.7c-1.5-1-3-2.3-4.7-3.9c-1.7-1.6-3.2-3.3-4.7-5.2c-1.5-1.9-2.5-3.8-3-5.6c0-0.2,0.3-0.6,0.7-1.4
			c0.4-0.7,0.9-1.6,1.6-2.6c0.7-1,1.4-2,2.2-3.2c0.8-1.2,1.6-2.3,2.4-3.4c0.8-1.1,1.6-2,2.3-2.8c0.7-0.8,1.4-1.4,1.9-1.8
			c1.3,2,2.7,3.9,4.2,5.6c1.4,1.7,2.9,3.3,4.3,4.7c1.4,1.4,2.8,2.7,4.2,3.7c1.3,1.1,2.6,1.9,3.7,2.5L93.6,65.9z"/>
		<path class="st0" d="M119.9,81.4c-0.2,2.3-0.3,5-0.1,8c0.2,3,0.4,6.2,0.6,9.6c0.3,3.4,0.6,6.9,0.9,10.6c0.3,3.7,0.5,7.4,0.7,11
			c0.1,3.7,0.1,7.2,0,10.8c-0.1,3.5-0.5,6.8-1.1,9.8c-0.9,5-2.2,10.2-3.7,15.4c-1.5,5.2-3.2,10.2-5,15c-2.5,7.8-5.5,14.8-9.1,21.1
			c-3.5,6.3-7.5,11.8-11.7,16.6c-4.3,4.8-8.9,8.9-13.7,12.2c-4.9,3.3-9.8,5.9-14.9,7.8c-5.1,1.9-10.2,3.1-15.4,3.6
			c-5.2,0.5-10.2,0.2-15.1-0.7c-6.3-1.2-11.7-3.5-16.2-7c-4.5-3.5-8-7.7-10.7-12.7c-2.6-5-4.3-10.6-5-16.8
			c-0.7-6.2-0.5-12.7,0.8-19.4c0.9-4.6,2-9.1,3.6-13.7c1.5-4.6,3.4-9.1,5.8-13.6c2.3-4.5,5.1-9,8.3-13.4c3.2-4.4,6.9-8.7,11.1-12.9
			c3-3,5.9-5.7,8.6-8c2.7-2.3,5.4-4.1,7.9-5.4c0.3,0.1,0.6,0.2,0.8,0.3c0.2,0.2,0.3,0.4,0.3,0.7c-0.1,0.4-0.3,0.9-0.5,1.5
			c-0.3,0.6-0.6,1-1,1.2c-1.3,1.4-2.9,3.1-4.8,5c-2,2-4,4.2-6.2,6.7c-2.2,2.5-4.4,5.2-6.7,8.2c-2.3,3-4.4,6.1-6.5,9.6
			c-2,3.4-3.8,7-5.4,10.9c-1.6,3.8-2.8,7.8-3.5,12c-1,5.5-1.1,10.6-0.3,15.4c0.8,4.7,2.4,8.9,4.7,12.5c2.3,3.6,5.2,6.6,8.7,9
			c3.5,2.4,7.4,3.9,11.7,4.8c5.9,1.1,11.7,1.2,17.3,0.2c5.6-1,11-2.7,16.1-5.1c5.1-2.4,9.8-5.4,14.1-8.9c4.3-3.5,8.1-7.2,11.5-11.1
			c3.3-3.9,6-7.8,8.1-11.7c2.1-3.9,3.5-7.6,4.1-10.9c0.4-2.1,0.6-4.7,0.5-7.8c-0.1-3.1-0.3-6.4-0.6-9.9c-0.3-3.5-0.7-7.1-1.2-10.7
			c-0.5-3.7-0.9-7.2-1.2-10.5c-0.3-3.3-0.6-6.3-0.7-9c-0.2-2.7-0.1-4.8,0.2-6.3c0.1-0.7,0.5-1.8,1-3.1c0.6-1.3,1.3-3,2.4-4.9
			c1-2,2.4-4.2,4-6.9c1.6-2.6,3.6-5.7,5.9-9.2L119.9,81.4z"/>
		<path class="st0" d="M141.8,161c0.1-0.4,0.3-0.8,0.8-1c0.4-0.2,0.9-0.5,1.4-0.7c2.9-1.7,5.9-3.4,9.1-5.3c3.2-1.9,6.1-4.1,8.9-6.7
			c2.8-2.6,5.3-5.5,7.4-8.9c2.2-3.4,3.7-7.4,4.5-12c0.6-3.4,1-7.4,1.2-12c0.1-4.6,0-9.7-0.5-15.5c-0.5-5.8-4.3-28-5.3-35.1
			c-1.1-7.1-2.5-15-4.2-23.6l-0.6-0.1c-1.9,2.4-3.4,4.8-4.4,7.1c-1,2.4-1.8,4.8-2.2,7.3c-0.3,1.8-0.5,3.4-0.4,4.8c0,1.5,0,2.4,0,2.7
			s-0.1,0.6-0.3,0.9c-0.1,0.3-0.3,0.4-0.6,0.4c-0.4-0.1-0.7-0.4-0.9-0.9c-0.2-0.5-0.4-1.2-0.5-2c-0.4-2.7-0.7-5.4-0.7-8
			c0-2.6,0.2-5.4,0.8-8.5c0.5-2.8,1.5-5.4,2.8-7.9c1.3-2.5,3-5,4.8-7.5c1.9-2.5,3.9-5.1,6.2-7.7c2.2-2.6,4.4-5.4,6.6-8.4l0.6,0.1
			c1,7.1,2.2,14.4,3.6,22c1.4,7.6,2.6,15.2,3.5,22.8c1,7.6,4.6,30.8,4.9,38c0.3,7.3-0.2,14.1-1.4,20.5c-0.5,2.4-1,4.7-1.5,6.8
			c-0.6,2.1-1.2,4.1-1.9,6c-0.7,1.9-1.5,3.7-2.3,5.5c-0.9,1.8-1.8,3.6-2.9,5.4c-2.8,5-6.5,9.4-11.2,13.1c-4.7,3.7-10.3,6.3-16.8,7.7
			c-1.9,0.3-3.5,0.7-4.7,1.1c-1.3,0.4-2.2,0.6-2.7,0.5c-0.3-0.1-0.6-0.1-0.8-0.2C141.8,161.5,141.7,161.3,141.8,161z"/>
		<path class="st0" d="M255.2,202.5c-0.5,1.4-1.3,2.9-2.3,4.6c-1,1.7-2,3.3-3.1,4.8c-1.1,1.5-2,2.8-2.9,3.8c-0.8,1-1.4,1.5-1.6,1.4
			c-0.7-0.1-1.5-0.5-2.5-1.2c-1-0.7-2.1-1.5-3.3-2.4c-1.2-1-2.3-2-3.5-3.2c-1.2-1.2-2.2-2.3-3.2-3.4c-1-1.1-1.8-2.2-2.4-3.3
			c-0.6-1-1-1.9-1.1-2.6c0.1-0.3,0.5-1.2,1.4-2.6c0.9-1.4,1.9-3,3.1-4.6c1.1-1.7,2.3-3.2,3.4-4.6c1.1-1.4,2-2.2,2.5-2.4
			c0.7,1.1,1.6,2.4,2.7,3.9c1.2,1.5,2.5,2.9,3.9,4.4c1.4,1.5,2.9,2.8,4.4,4.2C252.4,200.7,253.8,201.7,255.2,202.5z M266.7,186.9
			c1.7,3.1,3.9,6,6.7,8.8c2.8,2.7,5.8,5,8.8,6.9c-1.7,2.7-3.1,5-4.4,6.8c-1.2,1.8-2.3,3.2-3.2,4.3c-0.9,1.1-1.5,1.8-2,2.3
			c-0.5,0.5-0.8,0.7-1,0.6c-0.4-0.1-1.1-0.4-1.9-0.9c-0.8-0.5-1.8-1.2-2.8-2.1c-1-0.9-2.1-1.8-3.3-2.9c-1.1-1.1-2.2-2.2-3.2-3.3
			c-1-1.2-1.8-2.3-2.6-3.5c-0.7-1.2-1.2-2.3-1.3-3.4c0.1-0.4,0.5-1.2,1.2-2.4c0.7-1.2,1.6-2.5,2.7-4s2.1-2.9,3.2-4.2
			C264.8,188.6,265.9,187.5,266.7,186.9z"/>
		<path class="st0" d="M548.7,82.4c0.8-8.5,1.1-16.7,1-24.4c-0.1-7.8-0.7-15-1.8-21.6c-1.1-6.7-2.7-12.6-4.7-17.6
			c-2.1-5.1-4.6-9.2-7.7-12.4c-3.1-3.2-6.7-5.2-10.8-5.9c-1.7-0.3-3.5-0.3-5.4,0.1c-1.9,0.4-3.9,1.2-5.9,2.4c-2,1.2-4,2.7-6,4.6
			c-2,1.9-3.8,4.1-5.6,6.8c-3.4,5.1-6.1,10-7.9,14.8c-1.9,4.8-3.2,9.6-4.1,14.2c-0.9,5-1.3,10-1.1,14.9c0.2,4.9,0.7,9.6,1.5,14.2
			c0.8,4.6,1.8,9,2.9,13.1c1.1,4.2,2.2,8.2,3.1,11.9c1,3.7,1.7,7.1,2.2,10.3c0.5,3.1,0.5,5.9,0.1,8.4c-0.7,3.5-2.3,6.8-4.9,9.9
			c-2.6,3.1-5.9,6-9.9,8.8c-4.2,2.8-8.1,4.7-11.8,5.6c-3.7,0.9-7.3,1-10.6,0.4c-2.2-0.4-4.4-1.5-6.8-3.2c-1-0.7-1.9-1.6-2.9-2.6
			c-1.2-1.7-1.6-3.2-1.4-4.5c0.1-0.8,0.4-1.7,0.7-2.6c0.3-0.9,0.6-1.6,0.7-2.3c0.2-0.9,0.2-1.7,0.1-2.3c-0.1-0.6-0.5-1-1.3-1.1
			c-1.3-0.2-2.5,0.8-3.4,3c-1.7,4.3-3.5,7.6-5.1,10.1c-1.7,2.4-3.4,4.3-5.2,5.7c-3,2.4-5.6,3.9-7.8,4.6c-2.2,0.6-4.1,0.8-5.7,0.5
			c-1.5-0.3-2.7-1-3.4-2.1c-0.8-1.1-1-2.5-0.6-4.2c0.1-0.8,0.4-1.7,0.8-2.7c0.3-1,0.6-1.9,0.8-2.9c0.1-0.6,0.1-1.2-0.1-1.8
			c-0.2-0.6-0.6-0.9-1.4-1.1c-0.7-0.1-1.4,0.2-2,1c-0.6,0.8-1.2,1.9-1.9,3.2c-0.8,1.6-1.5,3.1-2.2,4.5c-0.7,1.5-1.4,2.9-2.2,4.2
			c-0.8,1.4-1.8,2.7-2.9,3.9c-1.1,1.3-2.4,2.5-4,3.7c-6.2,4.7-11.2,6.6-15,5.9c-1.3-0.2-2.2-0.8-2.8-1.8c-0.6-1-0.7-2.5-0.3-4.6
			c0.3-1.4,0.8-3,1.5-4.6c0.7-1.6,1.3-3.2,1.6-4.7c0.3-1.7-0.2-2.7-1.6-2.9c-0.4-0.1-0.8,0-1.3,0.3c-0.4,0.3-0.7,0.6-1,1.1
			c-3.4,6.1-7.1,11.1-11.2,14.9c-4.1,3.8-8.2,6.9-12.5,9.3c-7,4.1-13.7,6.8-20,8c-3.2,0.6-6.4,1-9.5,1c-0.5-3.8-1.1-7.2-1.7-10.2
			c-0.7-3.5-1.7-6.5-2.9-8.9c-1.2-2.5-2.7-4.4-4.5-5.9s-4-2.4-6.7-2.9c-1.6-0.3-3.2-0.3-4.8-0.1c-1.5,0.3-3,0.8-4.3,1.8
			c-1.3,0.9-2.5,2.2-3.6,3.7c-1.1,1.6-2,3.6-2.7,5.9c-0.5,1.6-1.1,3.4-1.8,5.3c-0.7,1.9-1.3,3.8-1.9,5.7c-0.7,1.9-1.3,3.6-1.8,5.2
			c-0.5,1.6-0.9,2.8-1,3.7c-0.3,1.8-0.3,3.5,0.1,5.3c0.4,1.8,1.2,3.5,2.4,5.1c1.2,1.6,2.7,3,4.7,4.2c1.9,1.2,4.2,2,6.9,2.5
			c1.8,0.3,3.7,0.5,6,0.6c1.4,0.1,3,0.1,4.7,0c1.1,0.2,2.2,0.3,3.3,0.5c0.5,1.1,0.8,2,0.9,2.9c0.2,1,0.2,2.1,0,3
			c-0.2,1.3-1,2.9-2.3,5c-1.3,2-3.2,4.3-5.8,6.9c-2.5,2.6-5.8,5.3-9.7,8.3c-3.9,3-8.6,6-14.1,9.1c-5.5,3.1-11.9,6.2-19.1,9.3
			c-7.2,3.1-15.4,6.1-24.5,9c-2.5,1-4.4,1.7-5.7,2.1c-1.3,0.4-2,0.9-2.1,1.3c-0.1,0.4,0,0.7,0.3,0.9c0.3,0.2,0.7,0.3,1.1,0.4
			c0.2,0,0.7,0,1.5-0.1c0.8-0.2,1.8-0.4,3.1-0.5c1.2-0.2,2.6-0.4,4.2-0.5c1.5-0.2,3.2-0.3,4.9-0.4c5.4-0.1,10.1-0.3,14.1-0.3
			c4-0.1,7.7-0.3,11.1-0.6s6.6-0.9,9.7-1.7c3.1-0.8,6.3-2,9.8-3.6c3.9-2.1,7.5-4.5,10.8-7.3c3.3-2.8,6.3-6,8.9-9.6
			c2.6-3.6,4.9-7.8,6.7-12.4c1.9-4.6,3.4-9.8,4.4-15.5c0.3-1.5,0.6-3,0.8-4.5c0.1-0.3,0.1-0.7,0.1-1.1c0.6,0,1.2-0.1,1.8-0.2
			c5.1-0.5,10.2-1.8,15.1-3.6c4.9-1.9,9.7-4.4,14.2-7.5s8.7-6.8,12.4-11l0.6,0.1c0.5,2.4,1.4,4.3,2.6,5.5c1.2,1.3,2.6,2.1,4.3,2.4
			c1.9,0.3,3.9,0.3,6-0.1c2.1-0.4,4.4-1.3,6.8-2.6c2.4-1.3,5-3.2,7.8-5.6c2.8-2.4,5.7-5.4,8.9-9l0.6,0.1c0.6,1.8,1.5,3.1,2.6,4
			c1.2,0.9,2.5,1.5,3.9,1.7c1.7,0.3,3.5,0.3,5.3,0c1.8-0.3,3.8-1.1,5.9-2.2c2.1-1.2,4.2-2.8,6.5-5c2.3-2.1,4.8-4.9,7.4-8.2l0.5,0.1
			c1.9,2,3.7,3.4,5.4,4.4c0.5,0.3,1,0.6,1.5,0.8c1.8,1,3.5,1.7,5.3,2c2.8,0.5,5.7,0.6,8.8,0.1c3.1-0.4,6.1-1.3,9.1-2.6
			c3-1.3,5.9-3,8.6-5.1c2.8-2.1,5.2-4.5,7.3-7.2c2.3-3,4.5-6.4,6.6-10.4c2.1-4,4.1-8.7,5.9-14.2c0.6-1.9,1.1-3.6,1.7-5
			c0.5-1.5,1-2.9,1.4-4.2c0.4-1.3,0.8-2.6,1.2-3.8c0.3-1.2,0.6-2.5,0.9-3.8c0.7-3.7,0.9-7.5,0.5-11.5c-0.4-3.9-1-7.9-2-11.9
			c-0.9-4-2-8.1-3.2-12.2c-1.2-4.1-2.3-8.2-3.2-12.4c-0.9-4.2-1.5-8.3-1.8-12.6c-0.3-4.2-0.1-8.4,0.7-12.6c0.4-2.2,1-4.1,1.7-5.8
			c0.7-1.7,1.6-3.2,2.6-4.5c1.5-2,3.2-3.4,5.2-4.2c1.9-0.8,4-1,6.1-0.6c4,0.8,7.5,2.6,10.5,5.7c3,3,5.4,6.9,7.4,11.8
			c1.9,4.9,3.4,10.6,4.3,17.1c0.9,6.6,1.3,13.7,1.3,21.6c0,7.8-0.5,16.2-1.5,25.1c-0.9,8.9-2.3,18.2-4.1,27.9
			c-1.1,5.6-2.1,10.1-3.3,13.4c-1.1,3.3-1.8,5.4-1.9,6.4c-0.1,0.4-0.1,0.9-0.2,1.3c-0.1,0.4,0,0.7,0.2,0.7c0.3,0,0.6-0.1,0.9-0.5
			c0.3-0.4,0.6-0.8,0.9-1.2c1.3-1.9,2.8-4,4.3-6.4c1.5-2.4,2.9-4.6,4.3-6.9c1.2-1.8,2.3-4.6,3.4-8.4c1.1-3.9,2.4-9.3,3.7-16.3
			C546.7,99.5,547.9,90.9,548.7,82.4z"/>
		<path class="st0" d="M286.5,126.9l-0.3,1.6c0,0-1.4,5.4-1.9,7.8c-1.2,5-2.1,10.2-3.6,15.1c-2.8,8.8-7.9,15.9-16.2,20.5
			c-8.6,4.8-19.3,4.8-27.3-3.7c-3.4-3.6-6.1-7.6-8.8-11.7c-1.9-2.9-3.9-5.6-6.6-7.8c-1.1-0.9-2.7-0.8-3.6,0.3
			c-0.3,0.4-0.7,0.8-0.9,1.3c-1.3,2.3-2.6,4.5-3.8,6.8c-3.2,6.4-7.3,12.1-12.6,16.9c-7.4,6.7-16.4,10.6-25.9,13.1
			c-8.7,2.3-17.6,2.6-26.5,2.9c-3.8,0.1-7.7,0.4-11.5,0.8c-1.8,0.2-3.6,1.1-5.5,0.4c0-0.3,0-0.4-0.1-0.7c1.4-0.9,2.8-2,4.3-2.7
			c10.5-4.7,21.1-9.2,31.5-14c12.8-6,24.6-13.7,34.7-23.9c7.1-7.2,12.7-15.6,17.4-24.6c1.2-2.4,2.6-4.7,5-6.1c0.5,0,1,0,1.5,0.1
			c0.8,0.5,1.8,0.9,2.3,1.7c0.9,1.2,1.6,2.7,2.2,4.1c1.6,3.8,3,7.7,4.8,11.3c2.3,4.7,5,9.3,8.9,13c3.4,3.2,7.4,5.4,12.3,4.6
			c9.6-1.5,16.8-6.6,21.4-15.1c1.5-2.6,2-5.8,3.2-8.6c0.7-1.7,1.6-3.4,2.7-4.9c0.2-0.2,0.4-0.4,0.6-0.5
			C285.5,124.4,286.7,125.6,286.5,126.9z"/>
		<path class="st0" d="M109.8,17.7c2.1-6.5,4.8-11.6,9.2-15.6c0.8-0.7,2-1.4,3-1.5c5.2-0.3,10.4-0.7,15.6-0.5c4.1,0.1,6,3,5.2,7.1
			c-2.1,10.2-8.8,16-18.4,18.9c-2.7,0.8-5.5,1.1-8.5,1.1c6.4-4.2,12.7-8.5,19.4-13C128.9,10.7,116,12.5,109.8,17.7z"/>
		<path class="st0" d="M404.4,69.4c8.6-2.2,16.2-4.6,22.7-7.3c6.5-2.7,11.6-6,15.4-9.9l-0.1-0.1c-1.9-0.2-3.6-0.4-5-0.8
			c-1.4-0.3-2.6-0.8-3.5-1.5c-0.9-0.7-1.6-1.5-2.1-2.5c-0.5-1-0.7-2.3-0.7-3.8c0-1.6,0.4-3.3,1-5c0.7-1.7,1.6-3.2,2.7-4.6
			c1.2-1.3,2.5-2.4,4.1-3.3c1.6-0.9,3.2-1.3,5-1.2c1.3,0,2.5,0.4,3.5,1.1c1,0.7,1.8,1.6,2.5,2.7c0.7,1.1,1.2,2.4,1.5,3.8
			c0.3,1.4,0.5,2.8,0.5,4.3c0,1.3-0.2,2.6-0.5,3.8l0,0.3c1.2,0.2,2.2,0.3,3,0.5c0.8,0.2,1.4,0.4,1.8,0.7c0.4,0.2,0.7,0.5,0.9,0.8
			c0.2,0.3,0.2,0.7,0.2,1c0,0.7-0.2,1.6-0.7,2.6c-0.4,1-1,2-1.5,2.9l-0.4,0c-0.7-0.6-1.6-1-2.7-1.4c-1.1-0.3-2.4-0.5-4-0.6
			c-1.4,2.4-3.1,4.4-5,6.2c-1.9,1.8-3.9,3.4-6.1,4.8c-2.2,1.4-4.3,2.5-6.6,3.5c-2.2,0.9-4.3,1.7-6.3,2.3c-2,0.6-3.8,1-5.4,1.2
			c-1.6,0.3-2.8,0.4-3.7,0.4c-1,0-1.9-0.1-2.8-0.3c-0.9-0.2-1.6-0.2-2.3-0.2c-0.6,0-1.3,0.1-2.3,0.2c-1,0.2-1.9,0.3-2.9,0.5
			c-0.7,0.1-1.2,0-1.4-0.3C403.1,69.8,403.5,69.6,404.4,69.4z M425.9,78.9c0-0.9,0.1-1.8,0.3-2.8c0.2-1,0.5-2.2,0.9-3.4
			c0.4-0.8,0.8-1.2,1.2-1.1c0.4,0.1,0.7,0.5,0.9,1.3c-0.2,0.9-0.3,1.6-0.4,2.3c-0.1,0.7-0.1,1.4-0.1,2.1c0,0.7,0.2,1.5,0.6,2.5
			c0.4,0.9,1,1.8,1.6,2.6c0.7,0.8,1.4,1.5,2.3,2.1c0.8,0.6,1.7,0.9,2.6,0.9c0.7,0,1.3-0.2,1.8-0.6c0.5-0.4,0.8-1,0.8-1.8
			c0-0.7-0.1-1.4-0.3-2.2c-0.2-0.8-0.4-1.6-0.7-2.4c-0.3-0.8-0.5-1.5-0.7-2.2c-0.2-0.7-0.3-1.4-0.3-1.9c0.3-1.1,0.6-2.1,0.9-2.9
			c0.3-0.9,0.6-1.5,0.9-2.1c0.3,0,0.6,0.2,0.7,0.6c0.2,1.3,0.5,2.5,1.1,3.8c0.6,1.2,1.2,2.3,2,3.3c0.8,1,1.6,1.7,2.6,2.4
			c1,0.6,2,0.9,3,0.9c0.4,0,0.8-0.1,1.1-0.3c0.4-0.2,0.6-0.4,0.6-0.7c0-0.3-0.2-0.8-0.5-1.6c-0.4-0.8-0.8-1.7-1.2-2.7
			c-0.4-1-0.8-2-1.2-3c-0.4-1-0.5-1.8-0.5-2.4c0-0.8,0.2-1.6,0.5-2.4c0.3-0.8,0.9-2,1.5-3.5c0.2-0.5,0.4-0.7,0.6-0.7
			c0.1,0,0.2,0.1,0.4,0.3c0.1,0.2,0.2,0.6,0.2,1.1l0,1c0,0.9,0.2,1.9,0.5,2.7c0.3,0.9,0.7,1.8,1.1,2.8c0.4,1,0.8,2.2,1.1,3.5
			s0.5,3,0.5,5c0,1.1-0.2,2.2-0.4,3.2c-0.3,1-0.6,1.9-1.1,2.7c-0.4,0.8-1,1.4-1.6,1.8c-0.6,0.4-1.3,0.7-2,0.6c-1.1,0-2.1-0.3-3-0.8
			c-0.9-0.5-1.7-1.1-2.4-1.9l-0.3,0.1c-0.2,1.5-0.5,2.7-0.9,3.7c-0.4,1-0.9,1.7-1.4,2.3c-0.5,0.6-1.1,1-1.7,1.3
			c-0.6,0.3-1.2,0.4-1.8,0.4c-0.9,0-1.9-0.3-3.1-0.9c-1.2-0.6-2.2-1.4-3.3-2.5c-1-1.1-1.9-2.6-2.6-4.3
			C426.2,83.4,425.9,81.3,425.9,78.9z M448.4,45c-0.3-2.7-1.1-4.9-2.3-6.5c-1.2-1.6-2.8-2.4-5-2.5c-1,0-2,0.1-2.7,0.4
			c-0.8,0.2-1.5,0.6-2,1c-0.6,0.4-1,0.8-1.3,1.3c-0.3,0.4-0.4,0.8-0.4,1.2c0,1,0.3,1.9,0.9,2.6c0.6,0.7,1.5,1.2,2.8,1.6
			c1.2,0.4,2.6,0.7,4.3,0.9c1.7,0.2,3.5,0.3,5.6,0.3L448.4,45z"/>
		<path class="st0" d="M428.7,229.8c8-2,14.8-4.1,20.5-6.5c5.7-2.4,10.5-4.8,14.5-7.2c4-2.4,7.3-4.7,9.9-7c2.6-2.2,4.9-4.2,6.8-5.9
			c1.9-1.7,3.6-3.1,5.1-4.2c1.5-1,3.1-1.6,4.8-1.5c1.2,0,2.1,0.4,3,1.2c0.8,0.8,1.6,1.7,2.4,2.6c0.8,0.9,1.6,1.8,2.4,2.6
			c0.8,0.8,1.8,1.2,3,1.2c0.5,0,1-0.2,1.4-0.5c0.4-0.3,0.6-0.8,0.6-1.3c0-0.5-0.1-1.1-0.2-1.8c-0.2-0.7-0.3-1.4-0.5-2
			c-0.2-0.7-0.4-1.4-0.5-1.9c-0.1-0.6-0.2-1-0.2-1.3c0-0.3,0.1-0.6,0.2-1.1c0.1-0.5,0.3-1,0.5-1.5c0.2-0.5,0.4-1,0.6-1.5
			c0.2-0.4,0.3-0.7,0.5-0.9c0.1-0.1,0.3-0.2,0.4-0.2c0.4,0,0.5,0.3,0.5,0.7c0,0.7,0.1,1.3,0.4,2c1,2.2,2.2,4,3.7,5.2s2.8,1.8,4,1.9
			c0.4,0,0.6-0.1,0.9-0.3c0.2-0.2,0.3-0.5,0.3-0.9c0-0.6-0.2-1.3-0.5-2.1c-0.4-0.8-0.8-1.7-1.2-2.5c-0.4-0.9-0.8-1.8-1.2-2.7
			c-0.4-0.9-0.5-1.8-0.5-2.6c0-0.3,0.1-0.7,0.2-1.3c0.1-0.6,0.2-1.1,0.4-1.7c0.1-0.6,0.3-1.1,0.5-1.6c0.2-0.5,0.3-0.9,0.5-1.2
			c0,0,0.1-0.1,0.3-0.1c0.4,0,0.6,0.3,0.8,0.7c0,0.3,0,0.5,0,0.7s0,0.5,0.1,0.7c0.1,0.7,0.4,1.5,0.9,2.3c0.4,0.8,0.9,1.7,1.4,2.6
			c0.5,1,0.9,2,1.3,3.2c0.4,1.2,0.6,2.5,0.5,3.9c0,1.5-0.2,2.8-0.5,4c-0.3,1.2-0.7,2.2-1.2,2.9c-0.5,0.8-1,1.4-1.6,1.8
			c-0.6,0.4-1.1,0.6-1.6,0.6c-0.9,0-1.8-0.3-2.6-0.8c-0.9-0.5-1.8-1.3-2.8-2.4l-0.3,0.1c-0.1,1.2-0.3,2.3-0.6,3.2
			c-0.3,0.9-0.7,1.7-1.2,2.2c-0.5,0.6-1,1-1.5,1.3c-0.5,0.3-1.1,0.4-1.5,0.4c-1.4,0-2.6-0.4-3.5-1.2c-0.9-0.8-1.8-1.6-2.7-2.6
			c-0.8-0.9-1.7-1.8-2.5-2.6c-0.9-0.8-1.9-1.2-3.1-1.2c-1.2,0-2.5,0.4-3.7,1.2c-1.2,0.8-2.6,2-4.1,3.4c-1.5,1.4-3.2,3-5.1,4.7
			c-1.9,1.8-4.2,3.6-6.8,5.4c-2.6,1.8-5.7,3.6-9.1,5.3c-3.5,1.7-7.5,3.2-12.1,4.5c-2,0.6-3.9,1-5.8,1.1c-1.8,0.1-3.7,0.2-5.7,0.2
			c-0.8,0-1.7,0-2.7,0.2c-0.9,0.1-1.8,0.2-2.6,0.4c-0.8,0.1-1.5,0.2-2.1,0.4c-0.6,0.1-1,0.2-1.1,0.2c-0.5,0-0.7-0.2-0.7-0.5
			C427.8,230.3,428.1,230,428.7,229.8z"/>
		<path class="st0" d="M107.9,210.6c-4.4,9-8.7,17.4-12.6,26c-1.9,4.2-3.3,8.7-3.9,13.3c0,0.2,0,0.3-0.1,0.5
			c-0.3,2.4,0.4,4.8,1.8,6.8l0,0c0.6,0.8,1.7,1.2,2.7,0.9c0,0,0,0,0,0c3-0.7,5.7-2.2,7.8-4.5c0.5-0.5,0.9-1,1.3-1.4
			c0.1,6.1-6.5,15.7-12.1,17.5c-4,1.3-9-1.6-9.2-6.3c-0.1-2,0.2-4.3,0.7-6.8c0.9-4.2,2.3-8.2,4.2-12.1c4.9-10.3,9.5-18.9,15-29.6
			C104.4,213.5,106.2,212.4,107.9,210.6z"/>
		<path class="st0" d="M810.3,217.3c-0.3,0-0.5-0.1-0.6-0.3c-0.1-0.2-0.1-0.5-0.1-0.8c0-1.7-0.6-3.3-1.8-5c-1.2-1.7-2.5-3.4-4-5.2
			c-1.5-1.8-2.8-3.8-4-5.9c-1.2-2.1-1.8-4.5-1.8-7c0-1.9,0.2-3.8,0.5-5.7c0.3-1.9,0.7-3.7,1.1-5.5c0.4-1.8,0.8-3.5,1.2-5.2
			c0.4-1.7,0.8-3.3,1.1-4.8c0.9-4.5,2.1-8.5,3.9-11.7c1.7-3.3,3.8-6,6.1-8.1c2.4-2.1,5-3.7,7.8-4.6c2.9-1,5.9-1.5,9.1-1.5
			c4.1,0,7.9,0.9,11.5,2.7c3.6,1.8,6.7,4.3,9.3,7.4c2.6,3.1,4.7,6.8,6.2,10.9c1.5,4.1,2.3,8.5,2.3,13.1c0,2.8-0.3,5.7-1,8.8
			s-1.3,5.9-2,8.5c-1.7,7.1-3.5,13.1-5.4,18c-2,4.9-4.2,9.1-6.6,12.5c-2.4,3.5-5.1,6.4-8.1,8.8c-2.9,2.4-6.2,4.6-9.8,6.7
			c-2.3,1.3-4.8,2.5-7.6,3.5c-2.8,1-5.7,1.8-8.6,2.4c-2.9,0.7-5.9,1.2-8.8,1.7c-2.9,0.5-5.6,0.8-8.1,1.1c-2.5,0.3-4.6,0.5-6.5,0.7
			c-1.9,0.2-3.3,0.4-4.1,0.6c-1.8,0.3-3.4,0.7-4.8,1.3c-1.4,0.5-2.5,0.7-3.1,0.7c-0.7,0-1.1-0.1-1.2-0.3c-0.2-0.2-0.2-0.5-0.2-0.8
			c0-0.2,0.2-0.4,0.6-0.7c0.4-0.3,0.8-0.6,1.4-0.9c0.6-0.3,1.1-0.7,1.8-1c0.6-0.3,1.2-0.6,1.7-0.9c4.3-2.3,9-4.8,14.3-7.6
			c5.2-2.8,10.5-5.8,15.8-8.9c5.3-3.1,10.4-6.4,15.4-9.9c5-3.5,9.4-7,13.2-10.6c3.8-3.6,6.9-7.3,9.2-11c2.3-3.7,3.5-7.4,3.5-11.1
			c0-2.5-0.5-5.1-1.5-7.9c-1-2.8-2.5-5.4-4.6-7.8c-2-2.4-4.6-4.4-7.7-5.9c-3.1-1.6-6.7-2.3-10.9-2.3c-2.4,0-4.6,0.3-6.7,1
			c-2.1,0.6-3.8,1.5-5.4,2.5c-1.5,1-2.7,2.1-3.6,3.4c-0.9,1.3-1.3,2.5-1.3,3.6c0,1.1,0.5,2.3,1.4,3.5c1,1.2,2,2.5,3.2,3.9
			c1.2,1.5,2.2,3.1,3.2,4.8c1,1.7,1.4,3.7,1.4,5.8c0,2.8-0.4,5.9-1.2,9.3c-0.8,3.4-2,7-3.6,10.6c-0.2,0.4-0.4,0.7-0.5,0.9
			C811,217.2,810.7,217.3,810.3,217.3z"/>
		<circle class="st0" cx="769.4" cy="225.2" r="8.6"/>
	</g>
</g>
</svg>
